<?xml version="1.0" encoding="UTF-8" standalone="no"?>
<!DOCTYPE svg PUBLIC "-//W3C//DTD SVG 1.1//EN" "http://www.w3.org/Graphics/SVG/1.1/DTD/svg11.dtd">
<svg width="100%" height="100%" viewBox="0 0 532 532" version="1.1" xmlns="http://www.w3.org/2000/svg" xmlns:xlink="http://www.w3.org/1999/xlink" xml:space="preserve" xmlns:serif="http://www.serif.com/" style="fill-rule:evenodd;clip-rule:evenodd;stroke-linejoin:round;stroke-miterlimit:2;">
    <g transform="matrix(1,0,0,1,-1415.368696,-57.159584)">
        <g>
            <g transform="matrix(1,0,0,1,192.709215,-996.208792)">
                <path d="M1753.937,1186.188L1753.937,1451.827C1753.937,1525.132 1694.423,1584.646 1621.118,1584.646L1355.479,1584.646C1282.174,1584.646 1222.659,1525.132 1222.659,1451.827L1222.659,1186.188C1222.659,1112.883 1282.174,1053.368 1355.479,1053.368L1621.118,1053.368C1694.423,1053.368 1753.937,1112.883 1753.937,1186.188Z"/>
            </g>
            <g transform="matrix(0.09375,-0,0,0.09375,1681.007459,322.798348)">
                <g transform="matrix(1,0,0,1,-2133.333333,-2133.333333)">
                    <g transform="matrix(6.944444,0,0,6.944444,-1422.222222,-1422.222222)">
                        <path d="M332.8,256C318.756,256 307.2,267.556 307.2,281.6L307.2,742.4C307.2,756.444 318.756,768 332.8,768L691.2,768C705.244,768 716.8,756.444 716.8,742.4L716.8,281.6C716.8,267.556 705.244,256 691.2,256L332.8,256ZM332.8,204.8L691.2,204.8C733.331,204.8 768,239.469 768,281.6L768,742.4C768,784.531 733.331,819.2 691.2,819.2L332.8,819.2C290.669,819.2 256,784.531 256,742.4L256,281.6C256,239.469 290.669,204.8 332.8,204.8ZM384,409.6C369.956,409.6 358.4,398.044 358.4,384C358.4,369.956 369.956,358.4 384,358.4L640,358.4C654.044,358.4 665.6,369.956 665.6,384C665.6,398.044 654.044,409.6 640,409.6L384,409.6ZM384,512C369.956,512 358.4,500.444 358.4,486.4C358.4,472.356 369.956,460.8 384,460.8L537.6,460.8C551.644,460.8 563.2,472.356 563.2,486.4C563.2,500.444 551.644,512 537.6,512L384,512ZM384,614.4C369.956,614.4 358.4,602.844 358.4,588.8C358.4,574.756 369.956,563.2 384,563.2L486.4,563.2C500.444,563.2 512,574.756 512,588.8C512,602.844 500.444,614.4 486.4,614.4L384,614.4Z" style="fill:white;fill-rule:nonzero;"/>
                    </g>
                </g>
            </g>
        </g>
    </g>
</svg>
